# xmcd
# Copyright (c) 1998 CDDB Inc.
#
# Track frame offsets:
#	150
#	25363
#	57042
#	89091
#	108683
#
# Disc length: 1726 seconds
#
# Revision: 1
# Processed by: cddbd v1.5.1PL0 Copyright (c) Steve Scherf et al.
# Submitted via: AudioCatalyst 2.10full
#
DISCID=4006bc05
DTITLE=O.H. Radish - ja etih mest ne znaju
DYEAR=1900
DGENRE=
TTITLE0=Ja dumaju o vas
TTITLE1=Vse i nichego
TTITLE2=Blues 16
TTITLE3=Atkins
TTITLE4=Govorya figuralno
EXTD=2002
EXTT0=
EXTT1=
EXTT2=
EXTT3=
EXTT4=
PLAYORDER=
